:FULLY-SPECIFIED
:FORCE-ALL-JOINTS-BE-3DOF
:DEGREES
227
root 8.68082 16.1695 -5.28252 10.2139 -4.03964 -7.70045
lfemur -48.3901 6.01696 -13.0802
ltibia 28.4913 0 0
lfoot -5.94885 11.8365 0
ltoes -13.1624 0 0
rfemur 17.7272 7.20157 31.3358
rtibia 2.00259e-15 0 0
rfoot -10.692 7.7641 0
rtoes -12.8277 0 0
lowerback -8.91171 2.93568 4.10276
upperback -1.51122 3.36818 3.8222
thorax 3.42532 1.70043 2.0631
lowerneck -16.1973 -5.93643 -13.8127
upperneck 15.36 -7.66948 14.9532
head 8.59638 -3.06306 6.44509
lclavicle 9.29684e-15 -2.18074e-14 0
lhumerus -51.583 -7.65097 93.4802
lradius 23.6392 0 0
lwrist 1.45876 0 0
lhand -8.9065 -24.4601 0
lfingers 7.12502 0 0
lthumb 17.0368 4.81917 0
rclavicle 9.29684e-15 -2.18074e-14 0
rhumerus -40.7013 13.6265 -86.9965
rradius 51.392 0 0
rwrist -24.9528 0 0
rhand -32.2628 -31.8108 0
rfingers 7.12502 0 0
rthumb -5.50245 -61.7211 0
228
root 8.70698 16.153 -5.10848 10.435 -4.17805 -7.71305
lfemur -48.9542 6.80263 -13.6209
ltibia 29.8119 0 0
lfoot -3.70092 11.5392 0
ltoes -13.8126 0 0
rfemur 18.1274 7.20805 31.1541
rtibia -5.44815e-15 0 0
rfoot -10.1519 7.80496 0
rtoes -13.1284 0 0
lowerback -9.05153 2.93942 4.10672
upperback -1.59912 3.37006 3.74994
thorax 3.41611 1.70107 1.99067
lowerneck -16.3217 -5.9274 -13.7801
upperneck 15.4072 -7.66727 15.0137
head 8.63606 -3.04944 6.46222
lclavicle 1.98313e-14 -1.41533e-14 0
lhumerus -51.6759 -7.62836 93.4033
lradius 23.62 0 0
lwrist 2.07992 0 0
lhand -8.94043 -24.2923 0
lfingers 7.12502 0 0
lthumb 17.0039 4.98574 0
rclavicle 1.98313e-14 -1.41533e-14 0
rhumerus -40.9904 13.4752 -87.2296
rradius 51.0935 0 0
rwrist -24.8164 0 0
rhand -32.2372 -31.9064 0
rfingers 7.12502 0 0
rthumb -5.47779 -61.8169 0
229
root 8.73313 16.1365 -4.93444 10.5977 -4.27223 -7.66441
lfemur -49.4055 7.42885 -14.1467
ltibia 31.1055 0 0
lfoot -2.06214 11.1303 0
ltoes -13.8593 0 0
rfemur 18.572 7.15394 30.9132
rtibia -1.27222e-14 0 0
rfoot -9.51988 7.79964 0
rtoes -13.5111 0 0
lowerback -9.14861 2.91597 4.04785
upperback -1.68464 3.34458 3.67824
thorax 3.38246 1.68759 1.94825
lowerneck -16.43 -5.92104 -13.7637
upperneck 15.4611 -7.66484 15.0611
head 8.67503 -3.03845 6.47781
lclavicle 2.56929e-14 -8.74653e-15 0
lhumerus -51.7119 -7.55329 93.2552
lradius 23.5084 0 0
lwrist 2.33574 0 0
lhand -8.83987 -24.1214 0
lfingers 7.12502 0 0
lthumb 17.1006 5.14601 0
rclavicle 2.56929e-14 -8.74653e-15 0
rhumerus -41.3402 13.2889 -87.421
rradius 50.8185 0 0
rwrist -24.6632 0 0
rhand -32.0752 -31.9954 0
rfingers 7.12502 0 0
rthumb -5.32131 -61.9086 0
230
root 8.76314 16.1288 -4.75008 10.7021 -4.30528 -7.54468
lfemur -49.7759 7.87143 -14.6608
ltibia 32.4362 0 0
lfoot -1.03989 10.5725 0
ltoes -13.2027 0 0
rfemur 19.1077 7.02268 30.6023
rtibia -0.0675652 0 0
rfoot -8.80724 7.76033 0
rtoes -14.0249 0 0
lowerback -9.21617 2.85692 3.91509
upperback -1.77208 3.28182 3.60538
thorax 3.3267 1.65486 1.93928
lowerneck -16.5017 -5.9158 -13.7687
upperneck 15.5128 -7.66089 15.0979
head 8.70658 -3.03048 6.49368
lclavicle 2.61213e-14 -5.47303e-15 0
lhumerus -51.7064 -7.42464 93.0315
lradius 23.2902 0 0
lwrist 2.21444 0 0
lhand -8.58642 -23.9949 0
lfingers 7.12502 0 0
lthumb 17.3445 5.25038 0
rclavicle 2.61213e-14 -5.47303e-15 0
rhumerus -41.7877 13.054 -87.5671
rradius 50.6011 0 0
rwrist -24.4688 0 0
rhand -31.6808 -32.1809 0
rfingers 7.12502 0 0
rthumb -4.94042 -62.1008 0
231
root 8.79316 16.1211 -4.56572 10.7693 -4.2811 -7.36464
lfemur -50.1201 8.17333 -15.179
ltibia 33.8526 0 0
lfoot -0.390095 9.89785 0
ltoes -12.0842 0 0
rfemur 19.7269 6.82389 30.2288
rtibia -0.216209 0 0
rfoot -8.02576 7.69892 0
rtoes -14.663 0 0
lowerback -9.27239 2.768 3.72346
upperback -1.86436 3.18718 3.52688
thorax 3.25686 1.60567 1.95222
lowerneck -16.5386 -5.91188 -13.7942
upperneck 15.5543 -7.6568 15.1333
head 8.72905 -3.02526 6.51258
lclavicle 2.31782e-14 -2.85661e-15 0
lhumerus -51.6803 -7.26761 92.7617
lradius 22.9974 0 0
lwrist 1.87905 0 0
lhand -8.26111 -23.9819 0
lfingers 7.12502 0 0
lthumb 17.6575 5.23479 0
rclavicle 2.31782e-14 -2.85661e-15 0
rhumerus -42.325 12.7684 -87.6775
rradius 50.4381 0 0
rwrist -24.2362 0 0
rhand -31.0701 -32.4728 0
rfingers 7.12502 0 0
rthumb -4.35067 -62.4031 0
232
root 8.82317 16.1135 -4.38137 10.8043 -4.2218 -7.13932
lfemur -50.4121 8.37554 -15.7009
ltibia 35.2868 0 0
lfoot -0.0424924 9.16094 0
ltoes -10.6888 0 0
rfemur 20.369 6.58069 29.8081
rtibia -0.364852 0 0
rfoot -7.16431 7.60314 0
rtoes -15.3622 0 0
lowerback -9.30528 2.66114 3.49057
upperback -1.95684 3.07441 3.44379
thorax 3.17208 1.54714 1.9799
lowerneck -16.5669 -5.91125 -13.8333
upperneck 15.5948 -7.65453 15.1667
head 8.7504 -3.02225 6.53291
lclavicle 1.83293e-14 -6.70903e-16 0
lhumerus -51.6197 -7.08991 92.459
lradius 22.6557 0 0
lwrist 1.38507 0 0
lhand -7.90722 -24.0401 0
lfingers 7.12502 0 0
lthumb 17.998 5.14525 0
rclavicle 1.83293e-14 -6.70903e-16 0
rhumerus -42.9037 12.4485 -87.759
rradius 50.286 0 0
rwrist -23.9967 0 0
rhand -30.367 -32.7447 0
rfingers 7.12502 0 0
rthumb -3.6717 -62.6871 0
